<?xml version="1.0" encoding="UTF-8"?>
<svg id="Camada_2" xmlns="http://www.w3.org/2000/svg" viewBox="0 0 843.47 143.16">
  <defs>
    <style>
      .cls-1 {
        fill: #fff;
      }

      .cls-2 {
        fill: #bd1616;
      }
    </style>
  </defs>
  <g id="Camada_1-2" data-name="Camada_1">
    <path class="cls-1" d="M262.57,68c14.56-1.83,25.47-12.38,25.47-26.35,0-15.45-16.51-26.35-27.08-26.35h-80.26v3.63l10.91,3.63v94.52l-10.91,3.63v3.63h85.51c18.2,0,30.93-7.38,30.93-28.18,0-24.53-20.01-28.17-34.58-28.17h.02ZM222.55,22.59s21.74-.02,25.47-.02c7.28,0,14.63,7.37,14.63,19.08s-3.71,22.72-14.63,22.72h-25.47V22.59h0ZM251.67,117.09h-43.67v-3.63l14.56-3.63v-38.17h29.11c10.91,0,18.19,9.1,18.19,23.63s-7.28,21.8-18.19,21.8h.01-.01Z"/>
    <path class="cls-1" d="M648.23,124.35l49.03-101.79,12.66-3.63v-3.63h-28.16v3.63l7.42,3.63-32.44,67.37-38.69-67.37,8.82-3.63v-3.63h-57.51v3.63l12.99,3.63,58.46,101.79h7.42Z"/>
    <path class="cls-1" d="M416.46,88h-29.74l-6.64-5.46h22.65c14.56,0,35.57-10.9,35.57-33.62s-21.02-33.62-35.57-33.62h-80.87v3.63l10.91,3.63v94.52l-10.91,3.63v3.63h52.77v-3.63l-10.91-3.63v-34.53h1.83l50.94,41.8h36.38v-6.5l-36.38-29.88h0v.02ZM363.7,75.27V22.57h27.3c14.52,0,20.01,16.36,20.01,26.35s-5.46,26.35-20.01,26.35h-27.3Z"/>
    <path class="cls-1" d="M584.04,117.09l-58.45-101.79h-44.49v3.63l12.99,3.63,11.2,19.5-36.13,75.01-12.66,3.63v3.63h28.17v-3.63l-7.42-3.63,12.69-26.35h43.31l15.13,26.35-8.82,3.63v3.63h57.51v-3.63l-13.02-3.63v.02ZM492.99,84.37l16.68-34.66,19.89,34.66h-36.57,0Z"/>
    <path class="cls-1" d="M782.69,15.33h-12c-36.38,0-60.78,23.59-60.78,54.44s24.38,54.46,60.78,54.46h12c36.38,0,60.78-23.59,60.78-54.46s-24.38-54.44-60.78-54.44ZM806.35,87.91c0,18.17-9.1,29.12-23.65,29.12h-11.99c-14.57,0-23.65-10.95-23.65-29.12v-36.25c0-18.17,9.1-29.12,23.65-29.12h11.99c14.56,0,23.65,10.95,23.65,29.12v36.25Z"/>
    <path class="cls-2" d="M52.11,132.36c-.56-.45-1.13-.92-1.71-1.4-3.89-3.26-7.71-6.83-11.38-10.63h29.13l-16.05,12.04h0Z"/>
    <path class="cls-2" d="M68.16,120.34h29.13c-3.65,3.81-7.47,7.39-11.38,10.63-.56.48-1.13.94-1.71,1.4l-16.05-12.04h0Z"/>
    <g>
      <path class="cls-2" d="M136.34.01l-6.04,6.04.02,24.56-6.03,5.49h-36.1l-4,4h-8.02v-4l5.35-5.35h37.43l5.35,5.35V8.02l6.01-6.01L128.3.01h8.05-.01Z"/>
      <path class="cls-2" d="M132.31,64.18l-8.01,8.01h-60.16l-4.01-4.01,4.01-4h44.12l4,4v-14.03l4.01-4.01h-6.02v-10.5s-4.86,6.47-17.95,6.47c-12.35,0-20.14-5.64-20.14-11.02,0-6.48,9.67-11.03,20.14-11.03s15.95,3.82,15.95,3.82l8.02-7.82v-8.02l-2.01-2.01,6.02-6.02V.01H48.11l-4,4v8.02l-4.01,4V4l-4.01-4H0v28.07l16.04,16.05H0l8.02,8.01h8.02l-11.08,11.08c.68,2.27,1.44,4.53,2.27,6.78,4.37,11.99,10.63,23.59,18.59,34.53,1.93,2.64,3.95,5.24,6.05,7.76h6.23v-8.02l8.02,8.02,10.02.04-8.01-8.05v-8.01l-8.02-8.02h12.04l8.01,8.02v8.01l8.01,8.02h8.02v-8.02l8.02,8.05,16.05-.04-8.02-8.02v-8.01l-8.01-8.02h12.04l8.01,8.02v16.3c2.19-2.6,4.27-5.29,6.26-8.01,2.04-2.79,3.96-5.65,5.77-8.51v-7.79h8.01v-4l8.02-8.01v-12.04h-.04ZM56.13,14.04v-6.01h20.05l-6.02,6.01h-6.01v-4l-4.01,4h-4.01Z"/>
      <path class="cls-2" d="M84.2,132.36c-5.41,4.36-10.85,8.01-16.05,10.79-5.19-2.78-10.63-6.44-16.06-10.79h32.11Z"/>
    </g>
  </g>
</svg>
